<?xml version="1.0" encoding="utf-8"?>
<!-- Generator: Adobe Illustrator 22.1.0, SVG Export Plug-In . SVG Version: 6.00 Build 0)  -->
<svg version="1.1" id="Layer_1" xmlns="http://www.w3.org/2000/svg" xmlns:xlink="http://www.w3.org/1999/xlink" x="0px" y="0px"
	 viewBox="0 0 256 256" style="enable-background:new 0 0 256 256;" xml:space="preserve">
<style type="text/css">
	.st0{fill:#26B99A;}
	.st1{fill:#1D9B81;}
	.st2{fill:#2B3E50;}
	.st3{fill:#FFFFFF;}
</style>
<rect class="st0" width="256" height="256"/>
<g>
	<path class="st1" d="M166.7,110.8c5.2-12.4,16.8-24.6,38.4-24.6c27.2,0,30,15.8,31.4,33.6c0.5,5.7-3.7,9.4-5.2,10.1
		c-8.4,3.9-39.2,6.2-39.2,6.2c1.1,5.7,9.8,8.8,19.8,8.8c7.6,0,14.8-0.6,22.7-3.1l3.7,19.2c-10.4,4.2-30.7,5.3-40.5,5.3l-25.1,0
		L166.7,110.8z M215.6,116.5c0-3.4-2.3-11.4-11.9-11.4c-9,0-12.5,7.1-13.1,11.4H215.6z"/>
</g>
<path class="st2" d="M189.8,88.5c-1.8,0.5-7,2.7-10.4,4.2c-3.7,1.6-7.4,3.2-11.2,4.9c-0.1,0-0.2,0.1-0.3,0.1c-0.1,0-0.2,0.1-0.3,0.1
	c-0.1,0-0.2,0.1-0.3,0.1c-0.1,0-0.2,0.1-0.3,0.1c-3,1.4-6,2.8-9,4.2c-3,1.4-5.9,2.9-8.8,4.4c-2.9,1.5-5.8,3-8.7,4.5
	c-2.8,1.5-5.7,3.1-8.5,4.7c-1,0.6-2,1.1-3,1.7c-1,0.6-2,1.1-3,1.7c-1,0.6-2,1.2-2.9,1.7c-1,0.6-1.9,1.2-2.9,1.7
	c-0.8,0.5-1.7,1-2.5,1.5c-0.8,0.5-1.7,1-2.5,1.5c-0.8,0.5-1.6,1-2.5,1.6c-0.8,0.5-1.6,1-2.4,1.6c-0.5,0.4-1.1,0.7-1.6,1.1
	c-0.5,0.4-1.1,0.7-1.6,1.1c-0.5,0.4-1.1,0.7-1.6,1.1c-0.5,0.4-1.1,0.7-1.6,1.1c-0.2,0.1-0.4,0.2-0.5,0.4c-0.2,0.1-0.4,0.3-0.5,0.4
	c-0.2,0.1-0.4,0.3-0.5,0.4c-0.2,0.1-0.4,0.2-0.5,0.4c-0.6,0.5-1.3,0.9-1.9,1.4c-0.6,0.5-1.3,0.9-1.9,1.4c-0.6,0.5-1.3,0.9-1.9,1.4
	c-0.6,0.5-1.3,0.9-1.9,1.4c-4.1,3.1-8.2,6.2-12.1,9.4c-3.9,3.2-7.7,6.5-11.4,9.8c-3.7,3.3-7.2,6.7-10.6,10.3
	c-3.4,3.5-6.7,7.1-9.8,10.8c-0.3,0.3-0.6,0.7-0.9,1c-0.3,0.3-0.6,0.7-0.9,1c-0.3,0.3-0.6,0.7-0.8,1c-0.3,0.3-0.6,0.7-0.8,1
	c-0.2,0.3-0.4,0.5-0.6,0.8c-0.2,0.3-0.4,0.5-0.6,0.8c-0.2,0.3-0.4,0.5-0.6,0.8c-0.2,0.3-0.4,0.5-0.6,0.8c-0.1-0.1-0.2-0.3-0.3-0.4
	c-0.1-0.1-0.2-0.3-0.3-0.4c-0.1-0.1-0.2-0.3-0.3-0.4c-0.1-0.1-0.2-0.3-0.3-0.4c-1.1-1.3-2.1-2.4-3-3.5c-0.9-1.1-1.8-2.1-2.7-3
	c-0.8-0.9-1.6-1.8-2.4-2.7c-0.8-0.8-1.5-1.7-2.3-2.5c-0.2-0.2-0.4-0.4-0.6-0.6c-0.2-0.2-0.4-0.4-0.6-0.6c-0.2-0.2-0.4-0.4-0.6-0.6
	c-0.2-0.2-0.4-0.4-0.6-0.6c-0.8-0.9-1.6-1.8-2.5-2.8c-0.8-0.9-1.7-1.9-2.5-3c-0.9-1-1.8-2.2-2.7-3.4c-0.9-1.2-1.9-2.5-3-3.9
	c-0.5-0.6-1-1.3-1.4-2c-0.5-0.7-1-1.4-1.5-2.1c-0.5-0.7-1-1.5-1.6-2.2c-0.5-0.8-1.1-1.6-1.7-2.4c1.1,3.6,2.2,7,3.2,10.3
	c1,3.3,2,6.4,3,9.4c1,3,1.9,5.9,2.9,8.6c0.9,2.8,1.9,5.4,2.8,8c0.2,0.6,0.4,1.2,0.6,1.8c0.2,0.6,0.4,1.2,0.6,1.8
	c0.2,0.6,0.4,1.2,0.6,1.7c0.2,0.6,0.4,1.2,0.6,1.7c0.1,0.3,0.2,0.5,0.3,0.8c0.1,0.3,0.2,0.5,0.3,0.8c0.1,0.3,0.2,0.5,0.3,0.8
	c0.1,0.3,0.2,0.5,0.3,0.8c0.1,0.3,0.2,0.6,0.3,0.8c0.1,0.3,0.2,0.6,0.3,0.8c0.1,0.3,0.2,0.6,0.3,0.8c0.1,0.3,0.2,0.6,0.3,0.8
	c0.1,0.2,0.2,0.4,0.2,0.6c0.1,0.2,0.2,0.4,0.2,0.6c0.1,0.2,0.2,0.4,0.2,0.6c0.1,0.2,0.2,0.4,0.2,0.6c0,0.1,0.1,0.2,0.1,0.3
	c0,0.1,0.1,0.2,0.1,0.3c0,0.1,0.1,0.2,0.1,0.3c0,0.1,0.1,0.2,0.1,0.3c0.1,0.3,0.2,0.5,0.3,0.8c0.1,0.3,0.2,0.5,0.3,0.8
	c0.1,0.3,0.2,0.6,0.3,0.8c0.1,0.3,0.2,0.6,0.3,0.8l-0.1,0.3l0.2-0.1c0.6,1.6,1.3,3.3,2,5c0.7,1.7,1.4,3.5,2.1,5.3
	c0.7,1.8,1.5,3.7,2.3,5.7c0.8,2,1.7,4,2.6,6.2c1.5-2.7,3-5.4,4.6-8c1.5-2.6,3.1-5.2,4.7-7.8c1.6-2.6,3.2-5.1,4.9-7.6
	c1.7-2.5,3.4-5,5.1-7.4c0,0,0.1-0.1,0.1-0.1c0-0.1,0.1-0.1,0.1-0.2c0,0,0.1-0.1,0.1-0.1c0,0,0.1-0.1,0.1-0.1c0.3-0.5,0.7-0.9,1-1.4
	c0.3-0.5,0.7-0.9,1-1.4c0.3-0.5,0.7-0.9,1-1.4c0.3-0.5,0.7-0.9,1-1.4c0.3-0.4,0.6-0.8,0.9-1.2c0.3-0.4,0.6-0.8,0.9-1.2
	c0.3-0.4,0.6-0.8,0.9-1.2c0.3-0.4,0.6-0.8,0.9-1.2c0.1-0.1,0.1-0.1,0.2-0.2c0.1-0.1,0.1-0.1,0.2-0.2c0.1-0.1,0.1-0.1,0.2-0.2
	c0.1-0.1,0.1-0.1,0.2-0.2c0.4-0.5,0.7-0.9,1.1-1.4c0.4-0.5,0.7-0.9,1.1-1.4c0.4-0.5,0.7-0.9,1.1-1.4c0.4-0.5,0.7-0.9,1.1-1.4
	c0.4-0.5,0.7-0.9,1.1-1.4c0.4-0.5,0.7-0.9,1.1-1.4c0.4-0.5,0.7-0.9,1.1-1.4c0.4-0.4,0.7-0.9,1.1-1.3c2.7-3.2,5.4-6.3,8.1-9.3
	c2.8-3.1,5.6-6,8.4-9c2.9-2.9,5.8-5.8,8.7-8.6c3-2.8,6-5.6,9-8.3c0.6-0.5,1.2-1,1.8-1.6c0.6-0.5,1.2-1,1.8-1.6
	c0.6-0.5,1.2-1,1.8-1.5c0.6-0.5,1.2-1,1.8-1.5c0.2-0.2,0.4-0.3,0.5-0.5c0.2-0.2,0.4-0.3,0.5-0.5c0.2-0.2,0.4-0.3,0.5-0.5
	c0.2-0.2,0.4-0.3,0.5-0.4c0.5-0.4,0.9-0.8,1.4-1.2c0.5-0.4,0.9-0.8,1.4-1.2c0.5-0.4,0.9-0.8,1.4-1.2c0.5-0.4,1-0.8,1.4-1.1
	c0.7-0.6,1.5-1.2,2.2-1.7c0.7-0.6,1.5-1.2,2.2-1.7c0.7-0.6,1.5-1.1,2.2-1.7c0.7-0.6,1.5-1.1,2.2-1.7c0.9-0.6,1.7-1.3,2.6-1.9
	c0.9-0.6,1.7-1.2,2.6-1.9c0.9-0.6,1.7-1.2,2.6-1.8c0.9-0.6,1.7-1.2,2.6-1.8c1.6-1.1,3.3-2.2,4.9-3.3c1.7-1.1,3.3-2.2,5-3.2
	c1.7-1.1,3.4-2.1,5.1-3.1c1.7-1,3.4-2,5.1-3c3.8-2.2,7.5-4.3,11.3-6.3c3.8-2,7.7-3.9,11.5-5.7c1-0.5,2.9-1.4,2.9-1.4
	S190.2,88.4,189.8,88.5z"/>
<path class="st3" d="M158.2,116.5c-0.7,0.4-1.3,0.9-2,1.3c-0.7,0.4-1.3,0.9-2,1.3c-0.7,0.4-1.3,0.9-2,1.3c-0.9,0.6-1.8,1.2-2.7,1.8
	c-0.9,0.6-1.8,1.2-2.7,1.8c-0.9,0.6-1.8,1.2-2.6,1.9c-0.9,0.6-1.8,1.3-2.6,1.9c-0.8,0.6-1.5,1.1-2.3,1.7c-0.8,0.6-1.5,1.1-2.3,1.7
	c-0.8,0.6-1.5,1.2-2.3,1.7c-0.8,0.6-1.5,1.2-2.3,1.8c-0.5,0.4-1,0.8-1.5,1.2c-0.5,0.4-1,0.8-1.5,1.2c-0.5,0.4-1,0.8-1.5,1.2
	c-0.5,0.4-1,0.8-1.4,1.2c-0.2,0.2-0.4,0.3-0.5,0.5c-0.2,0.2-0.4,0.3-0.5,0.5c-0.2,0.2-0.4,0.3-0.5,0.5c-0.2,0.2-0.4,0.3-0.5,0.5
	c-0.6,0.5-1.2,1-1.8,1.5c-0.6,0.5-1.2,1-1.8,1.6c-0.6,0.5-1.2,1-1.8,1.6c-0.6,0.5-1.2,1-1.8,1.6c-1.9,1.7-3.8,3.4-5.7,5.1
	c-1.9,1.7-3.7,3.5-5.6,5.2c-1.8,1.8-3.7,3.6-5.4,5.4c-1.8,1.8-3.6,3.6-5.3,5.5l38.6-1.3l6.7-26.9l6,26.5l26.3-0.8l-6-55.6
	L158.2,116.5z"/>
<path class="st3" d="M126.7,112.8c1-0.6,1.9-1.2,2.9-1.7l-0.2-3.7c-0.1-1.5,0.1-2.9,0.6-4.2c0.5-1.3,1.2-2.6,2.1-3.7
	c0.9-1.1,2-2.1,3.3-2.8c1.3-0.7,2.7-1.3,4.2-1.5l1.8-0.3c-0.8-0.1-1.5-0.4-2.2-0.8c-0.7-0.4-1.3-0.8-1.8-1.4
	c-0.5-0.5-0.9-1.2-1.2-1.9c-0.3-0.7-0.5-1.4-0.6-2.2c-0.1-1,0.1-2.1,0.4-3c0.3-1,0.8-1.9,1.5-2.7c0.7-0.8,1.5-1.5,2.4-2.1
	c0.9-0.6,1.9-1,3.1-1.2c1.1-0.2,2.2-0.2,3.2,0c1,0.2,1.9,0.6,2.7,1.1c0.8,0.5,1.5,1.3,2,2.1c0.5,0.8,0.8,1.8,0.9,2.9
	c0.1,0.8,0,1.6-0.2,2.4c-0.2,0.8-0.5,1.6-0.9,2.3c-0.4,0.7-0.9,1.4-1.5,2c-0.6,0.6-1.3,1.1-2,1.5l1.6-0.3c0.9-0.2,1.8-0.2,2.7-0.1
	c0.9,0.1,1.7,0.2,2.6,0.4c0.8,0.2,1.6,0.6,2.3,1c0.2,0.1,0.4,0.3,0.6,0.4c0,0,0,0,0,0l6.9-2.3l-4.3-36.8c-0.1-1.3-0.6-2.4-1.2-3.4
	c-0.7-1-1.5-1.8-2.6-2.4c-1-0.6-2.2-1-3.5-1.2c-1.3-0.2-2.6-0.1-4.1,0.2L109.3,57l-8.7,29.9L90.3,60.8l-38.7,7.6
	c-0.9,0.2-1.8,0.6-2.6,1.2c-0.8,0.6-1.6,1.3-2.2,2.1c-0.6,0.8-1.2,1.7-1.6,2.7c-0.4,0.9-0.6,1.9-0.7,2.9c0,0-1.2,20.7-1.2,20.8
	L37.9,168l5.9,6.7l1.4-25.2c0.1-2.6,0.7-5.1,1.6-7.4c0.9-2.3,2.1-4.4,3.5-6.2c1.4-1.8,3.1-3.4,5-4.5c1.9-1.2,3.9-1.9,6.1-2.2
	l2.7-0.3c-1.1-0.4-2.1-0.9-2.9-1.6c-0.9-0.7-1.6-1.6-2.2-2.6c-0.6-1-1.1-2.1-1.4-3.3c-0.3-1.2-0.4-2.5-0.4-3.9
	c0.1-1.8,0.4-3.5,1.1-5.2c0.6-1.6,1.5-3.1,2.5-4.5c1-1.3,2.3-2.5,3.6-3.4c1.4-0.9,2.9-1.5,4.4-1.8c0,0,0,0,0,0c0,0,0,0,0,0
	c0,0,0,0,0,0c0,0,0,0,0,0c1.6-0.3,3.1-0.2,4.5,0.2c1.4,0.4,2.7,1.1,3.7,2.1c1.1,1,1.9,2.3,2.5,3.8c0.6,1.5,0.9,3.2,0.9,5.1
	c0,1.5-0.2,2.9-0.6,4.3c-0.4,1.4-1,2.7-1.7,3.9c-0.7,1.2-1.6,2.3-2.5,3.3c-1,1-2,1.8-3.2,2.4l2.3-0.3c1.6-0.2,3.2-0.1,4.7,0.2
	c1.5,0.3,3,0.9,4.3,1.6c1.3,0.8,2.6,1.8,3.7,3c1,1.1,1.8,2.4,2.5,3.7c0.6-0.5,1.2-0.9,1.8-1.4l-0.1-8.3c0-1.9,0.3-3.8,0.9-5.5
	c0.6-1.7,1.5-3.3,2.7-4.8c1.1-1.4,2.5-2.6,4-3.5c1.5-0.9,3.2-1.6,5.1-1.8l2.2-0.3c-0.9-0.2-1.8-0.6-2.6-1.1c-0.8-0.5-1.5-1.1-2-1.8
	c-0.6-0.7-1-1.5-1.3-2.5c-0.3-0.9-0.5-1.9-0.5-2.9c0-1.3,0.2-2.7,0.6-3.9c0.4-1.2,1.1-2.4,1.9-3.4c0.8-1,1.8-1.9,2.9-2.6
	c1.1-0.7,2.4-1.2,3.7-1.5c1.3-0.3,2.6-0.2,3.8,0c1.2,0.3,2.3,0.8,3.2,1.5c0.9,0.7,1.7,1.7,2.3,2.8c0.6,1.1,0.9,2.4,1,3.8
	c0.1,1.1-0.1,2.2-0.3,3.2c-0.3,1-0.7,2-1.2,3c-0.5,0.9-1.2,1.8-2,2.5c-0.8,0.8-1.6,1.4-2.6,1.9l1.9-0.3c1-0.2,2-0.2,3-0.1
	c1,0.1,2,0.3,2.9,0.5c0.9,0.3,1.8,0.7,2.6,1.2c0.8,0.5,1.6,1.1,2.3,1.7L126.7,112.8z"/>
</svg>
